<svg width="1400" height="980" viewBox="0 0 1400 980" fill="none" xmlns="http://www.w3.org/2000/svg">
  <rect width="1400" height="980" rx="56" fill="#070A14"/>
  <rect x="44" y="44" width="1312" height="892" rx="40" fill="url(#bg)" stroke="rgba(255,255,255,0.06)"/>

  <circle cx="314" cy="490" r="132" fill="url(#glowLeft)"/>
  <circle cx="700" cy="490" r="176" fill="url(#glowCenter)"/>
  <circle cx="1086" cy="490" r="132" fill="url(#glowRight)"/>

  <path d="M420 490H592" stroke="url(#lineLeft)" stroke-width="8" stroke-linecap="round"/>
  <path d="M808 490H980" stroke="url(#lineRight)" stroke-width="8" stroke-linecap="round"/>

  <circle cx="314" cy="490" r="88" fill="#0B1020" stroke="rgba(255,255,255,0.08)" stroke-width="2"/>
  <circle cx="700" cy="490" r="116" fill="#F8FAFC"/>
  <circle cx="1086" cy="490" r="88" fill="#0B1020" stroke="rgba(255,255,255,0.08)" stroke-width="2"/>

  <circle cx="500" cy="490" r="10" fill="#8B5CF6"/>
  <circle cx="894" cy="490" r="10" fill="#67E8F9"/>

  <rect x="240" y="446" width="150" height="28" rx="14" fill="rgba(139,92,246,0.16)"/>
  <rect x="240" y="490" width="114" height="18" rx="9" fill="#F8FAFC"/>

  <rect x="620" y="432" width="160" height="28" rx="14" fill="rgba(81,47,235,0.14)"/>
  <rect x="620" y="478" width="132" height="20" rx="10" fill="#0F172A"/>
  <rect x="620" y="512" width="104" height="12" rx="6" fill="#64748B"/>

  <rect x="1014" y="446" width="150" height="28" rx="14" fill="rgba(6,182,212,0.16)"/>
  <rect x="1014" y="490" width="112" height="18" rx="9" fill="#F8FAFC"/>

  <text x="260" y="465" fill="#C4B5FD" font-family="Inter, sans-serif" font-size="18" font-weight="700">Input</text>
  <text x="260" y="506" fill="#FFFFFF" font-family="Inter, sans-serif" font-size="28" font-weight="800">Sources</text>

  <text x="640" y="451" fill="#512FEB" font-family="Inter, sans-serif" font-size="18" font-weight="700">AI Core</text>
  <text x="640" y="495" fill="#0F172A" font-family="Inter, sans-serif" font-size="32" font-weight="800">Workflow</text>
  <text x="640" y="524" fill="#64748B" font-family="Inter, sans-serif" font-size="16" font-weight="600">Context and logic</text>

  <text x="1034" y="465" fill="#67E8F9" font-family="Inter, sans-serif" font-size="18" font-weight="700">Output</text>
  <text x="1034" y="506" fill="#FFFFFF" font-family="Inter, sans-serif" font-size="28" font-weight="800">Actions</text>

  <defs>
    <linearGradient id="bg" x1="700" y1="44" x2="700" y2="936" gradientUnits="userSpaceOnUse">
      <stop stop-color="#0B1020"/>
      <stop offset="1" stop-color="#070A14"/>
    </linearGradient>
    <radialGradient id="glowLeft" cx="0" cy="0" r="1" gradientUnits="userSpaceOnUse" gradientTransform="translate(314 490) rotate(90) scale(132)">
      <stop stop-color="#8B5CF6" stop-opacity="0.22"/>
      <stop offset="1" stop-color="#8B5CF6" stop-opacity="0"/>
    </radialGradient>
    <radialGradient id="glowCenter" cx="0" cy="0" r="1" gradientUnits="userSpaceOnUse" gradientTransform="translate(700 490) rotate(90) scale(176)">
      <stop stop-color="#FFFFFF" stop-opacity="0.14"/>
      <stop offset="1" stop-color="#FFFFFF" stop-opacity="0"/>
    </radialGradient>
    <radialGradient id="glowRight" cx="0" cy="0" r="1" gradientUnits="userSpaceOnUse" gradientTransform="translate(1086 490) rotate(90) scale(132)">
      <stop stop-color="#06B6D4" stop-opacity="0.2"/>
      <stop offset="1" stop-color="#06B6D4" stop-opacity="0"/>
    </radialGradient>
    <linearGradient id="lineLeft" x1="420" y1="490" x2="592" y2="490" gradientUnits="userSpaceOnUse">
      <stop stop-color="#8B5CF6"/>
      <stop offset="1" stop-color="#C4B5FD"/>
    </linearGradient>
    <linearGradient id="lineRight" x1="808" y1="490" x2="980" y2="490" gradientUnits="userSpaceOnUse">
      <stop stop-color="#C4B5FD"/>
      <stop offset="1" stop-color="#67E8F9"/>
    </linearGradient>
  </defs>
</svg>
